<svg width="194" height="61" viewBox="0 0 194 61" fill="none" xmlns="http://www.w3.org/2000/svg">
<g clip-path="url(#clip0_29_381)">
<path d="M77.1448 37.1345H66.4615V31.8326H77.1448V37.1345Z" fill="#091229"/>
<path fill-rule="evenodd" clip-rule="evenodd" d="M55.1034 60.9928C58.4204 60.9928 61.1415 58.1628 61.1199 54.6951V6.29774C61.1343 2.83721 58.4204 0 55.1034 0H6.05958C2.74261 0 0.0287184 2.83721 0 6.3479V54.7381C0.0287184 58.1556 2.74261 60.9928 6.05958 60.9928H55.1034ZM22.4937 50.382H38.655V50.3892C45.1884 50.3892 50.5013 45.073 50.5013 38.546V18.5709H45.1884V38.546C45.1884 42.1498 42.2591 45.0801 38.655 45.0801H22.4937C18.8895 45.0801 15.9603 42.1355 15.9603 38.5173V10.6109H10.6474V38.5101C10.6474 45.0587 15.9603 50.382 22.4937 50.382Z" fill="#091229"/>
<path d="M77.073 23.8727H93.0189V50.4035H98.3318V23.8727H114.285V18.5637H77.073V23.8727Z" fill="#091229"/>
<path d="M188.687 10.6037V18.5636H170.027C164.205 18.5636 159.466 23.2923 159.466 29.1029V38.1304V39.8427C159.466 45.6533 164.205 50.3819 170.027 50.3819H194V39.7926V10.6037H188.687ZM188.687 38.1375V39.7854V45.0873H170.027C167.134 45.0873 164.786 42.7372 164.786 39.857V29.1029C164.786 26.2227 167.141 23.8727 170.027 23.8727H188.687V38.1375Z" fill="#091229"/>
<path d="M141 18.5708H122.29V23.8727H140.936C143.894 23.9945 146.177 26.2227 146.177 29.1029V29.1817H127.093C121.335 29.1817 116.992 33.6381 116.956 39.5704V39.7854C116.949 45.7392 121.4 50.4034 127.086 50.4034H146.177H151.49V29.11C151.49 23.321 146.945 18.5708 141 18.578V18.5708ZM127.093 45.0944C124.365 45.0944 122.297 42.8447 122.269 39.8499V39.6421C122.269 36.6544 124.308 34.4835 127.1 34.4835H146.184V45.0872H127.093V45.0944Z" fill="#091229"/>
</g>
<defs>
<clipPath id="clip0_29_381">
<rect width="194" height="61" fill="white"/>
</clipPath>
</defs>
</svg>
