<svg width="381" height="413" viewBox="0 0 381 413" fill="none" xmlns="http://www.w3.org/2000/svg">
<rect x="4" y="4" width="337" height="405" rx="12" fill="white" stroke="#091229" stroke-width="8"/>
<path d="M4 16C4 9.37258 9.37258 4 16 4H329C335.627 4 341 9.37258 341 16V51H4V16Z" fill="#0065F3" stroke="#091229" stroke-width="8"/>
<circle cx="24" cy="27" r="7" fill="white"/>
<circle cx="46" cy="27" r="7" fill="white"/>
<circle cx="68" cy="27" r="7" fill="white"/>
<path d="M17 104.22V97H51.7099V104.22H17ZM51.7099 104.22V97H86.4198V104.22H51.7099ZM86.4198 104.22V97H121.13V104.22H86.4198ZM121.13 104.22V97H155.84V104.22H121.13ZM176.042 104.22V97H210.752V104.22H176.042ZM230.954 104.22V97H265.664V104.22H230.954ZM265.664 104.22V97H300.374V104.22H265.664ZM17 139.22V132H51.7099V139.22H17ZM51.7099 139.22V132H86.4198V139.22H51.7099ZM86.4198 139.22V132H121.13V139.22H86.4198ZM97.809 244.22V237H132.519V244.22H97.809ZM77.6067 279.22V272H112.317V279.22H77.6067ZM112.317 279.22V272H147.027V279.22H112.317Z" fill="#0065F3"/>
<path d="M211.157 164H377V362H177V198.157L211.157 164Z" fill="#0065F3" stroke="#0065F3" stroke-width="8"/>
<path d="M212.5 199.5H176L212.5 163V199.5Z" fill="white"/>
<path d="M195.188 282.142V271.69L220.63 236.281H237.241L212.528 271.69L204.911 269.421H249.233V282.142H195.188ZM225.168 293V282.142L225.654 269.421V259.779H240.806V293H225.168ZM277.527 294.134C272.666 294.134 268.344 292.973 264.563 290.65C260.836 288.327 257.892 284.978 255.731 280.603C253.57 276.227 252.49 270.907 252.49 264.64C252.49 258.374 253.57 253.054 255.731 248.678C257.892 244.303 260.836 240.954 264.563 238.631C268.344 236.308 272.666 235.147 277.527 235.147C282.335 235.147 286.602 236.308 290.329 238.631C294.111 240.954 297.082 244.303 299.242 248.678C301.403 253.054 302.484 258.374 302.484 264.64C302.484 270.907 301.403 276.227 299.242 280.603C297.082 284.978 294.111 288.327 290.329 290.65C286.602 292.973 282.335 294.134 277.527 294.134ZM277.527 281.008C279.256 281.008 280.768 280.468 282.065 279.387C283.415 278.307 284.468 276.578 285.225 274.202C285.981 271.771 286.359 268.584 286.359 264.64C286.359 260.643 285.981 257.456 285.225 255.079C284.468 252.702 283.415 250.974 282.065 249.894C280.768 248.813 279.256 248.273 277.527 248.273C275.799 248.273 274.259 248.813 272.909 249.894C271.612 250.974 270.559 252.702 269.749 255.079C268.992 257.456 268.614 260.643 268.614 264.64C268.614 268.584 268.992 271.771 269.749 274.202C270.559 276.578 271.612 278.307 272.909 279.387C274.259 280.468 275.799 281.008 277.527 281.008ZM307.391 282.142V271.69L332.834 236.281H349.444L324.731 271.69L317.115 269.421H361.437V282.142H307.391ZM337.371 293V282.142L337.858 269.421V259.779H353.01V293H337.371Z" fill="white"/>
</svg>
