<svg width="213" height="205" viewBox="0 0 213 205" fill="none" xmlns="http://www.w3.org/2000/svg">
<path d="M86.5264 81.205C86.5264 69.9146 95.6791 60.7618 106.97 60.7618H185.903C197.194 60.7618 206.346 69.9146 206.346 81.205V162.978H86.5264V81.205Z" stroke="#091229" stroke-width="4.54294"/>
<rect x="180.792" y="202.729" width="29.5291" height="39.7507" transform="rotate(-180 180.792 202.729)" stroke="#091229" stroke-width="4.54294"/>
<path d="M86.5264 81.205C86.5264 69.9146 95.6791 60.7618 106.97 60.7618H119.463C130.753 60.7618 139.906 69.9146 139.906 81.205V162.978H86.5264V81.205Z" stroke="#091229" stroke-width="4.54294"/>
<circle cx="169.435" cy="84.0444" r="7.95014" stroke="#091229" stroke-width="4.54294"/>
<g clip-path="url(#clip0_325_901)">
<path d="M152.809 85.4166H78.6789C72.4063 85.4166 67.2742 90.1015 67.2742 95.8275V142.677C67.2742 148.455 72.4063 153.087 78.6789 153.087H152.809C159.139 153.087 164.214 148.455 164.214 142.677V95.8275C164.214 90.1015 159.139 85.4166 152.809 85.4166ZM152.809 142.677H78.6789V104.521L115.744 121.855L152.809 104.521V142.677ZM115.744 113.058L78.6789 95.8275H152.809L115.744 113.058ZM55.8696 142.677C55.8696 143.561 56.0406 144.394 56.1547 145.279H33.0602C29.9126 145.279 27.3579 142.937 27.3579 140.074C27.3579 137.211 29.9126 134.868 33.0602 134.868H55.8696V142.677ZM44.4649 93.2248H56.1547C56.0406 94.1097 55.8696 94.9426 55.8696 95.8275V103.636H44.4649C41.3286 103.636 38.7626 101.293 38.7626 98.4302C38.7626 95.5673 41.3286 93.2248 44.4649 93.2248ZM33.0602 119.252C33.0602 116.389 35.6263 114.047 38.7626 114.047H55.8696V124.457H38.7626C35.6263 124.457 33.0602 122.115 33.0602 119.252Z" fill="#0065F3"/>
</g>
<line x1="168.867" y1="-9.9289e-08" x2="168.867" y2="78.3657" stroke="#091229" stroke-width="4.54294"/>
<rect x="171.139" width="40.8864" height="33.5042" fill="#0065F3"/>
<defs>
<clipPath id="clip0_325_901">
<rect width="136.856" height="124.931" fill="white" transform="translate(0.77832 56.7867)"/>
</clipPath>
</defs>
</svg>
