<svg width="185" height="205" viewBox="0 0 185 205" fill="none" xmlns="http://www.w3.org/2000/svg">
<g id="Illustration_Mail">
<path id="Rectangle 1" d="M59.1684 81.205C59.1684 69.9146 68.3212 60.7618 79.6117 60.7618H158.545C169.836 60.7618 178.988 69.9146 178.988 81.205V162.978H59.1684V81.205Z" stroke="#091229" stroke-width="4.54294"/>
<rect id="Rectangle 4" x="153.435" y="202.729" width="29.5291" height="39.7507" transform="rotate(-180 153.435 202.729)" stroke="#091229" stroke-width="4.54294"/>
<path id="Rectangle 2" d="M59.1684 81.205C59.1684 69.9146 68.3212 60.7618 79.6117 60.7618H92.1047C103.395 60.7618 112.548 69.9146 112.548 81.205V162.978H59.1684V81.205Z" stroke="#091229" stroke-width="4.54294"/>
<circle id="Ellipse 1" cx="142.077" cy="84.0444" r="7.95014" stroke="#091229" stroke-width="4.54294"/>
<g id="mail" clip-path="url(#clip0_604_2298)">
<path id="Vector" d="M125.451 85.4167H51.321C45.0484 85.4167 39.9163 90.1017 39.9163 95.8276V142.677C39.9163 148.455 45.0484 153.088 51.321 153.088H125.451C131.781 153.088 136.856 148.455 136.856 142.677V95.8276C136.856 90.1017 131.781 85.4167 125.451 85.4167ZM125.451 142.677H51.321V104.521L88.3861 121.855L125.451 104.521V142.677ZM88.3861 113.058L51.321 95.8276H125.451L88.3861 113.058ZM28.5117 142.677C28.5117 143.562 28.6827 144.394 28.7968 145.279H5.70233C2.55464 145.279 0 142.937 0 140.074C0 137.211 2.55464 134.869 5.70233 134.869H28.5117V142.677ZM17.107 93.2249H28.7968C28.6827 94.1098 28.5117 94.9427 28.5117 95.8276V103.636H17.107C13.9707 103.636 11.4047 101.293 11.4047 98.4304C11.4047 95.5674 13.9707 93.2249 17.107 93.2249ZM5.70233 119.252C5.70233 116.389 8.26838 114.047 11.4047 114.047H28.5117V124.458H11.4047C8.26838 124.458 5.70233 122.115 5.70233 119.252Z" fill="#0065F3"/>
</g>
<line id="Line 1" x1="141.509" y1="-9.9289e-08" x2="141.509" y2="78.3657" stroke="#091229" stroke-width="4.54294"/>
<rect id="Rectangle 3" x="143.781" width="40.8864" height="33.5042" fill="#0065F3"/>
</g>
<defs>
<clipPath id="clip0_604_2298">
<rect width="106.191" height="74.9585" fill="white" transform="translate(0 82.3407)"/>
</clipPath>
</defs>
</svg>
