<svg width="525" height="398" viewBox="0 0 525 398" fill="none" xmlns="http://www.w3.org/2000/svg">
<g clip-path="url(#clip0_859_9024)">
<path d="M182.727 163.031C183.874 163.197 185.044 163.109 186.153 162.774C187.262 162.438 188.285 161.863 189.148 161.09C190.012 160.316 190.696 159.363 191.151 158.296C191.607 157.229 191.824 156.076 191.786 154.916L218.085 144.8L206.177 136.274L183.029 147.188C181.087 147.381 179.283 148.28 177.959 149.715C176.635 151.151 175.884 153.023 175.847 154.976C175.809 156.929 176.49 158.828 177.758 160.313C179.026 161.798 180.795 162.765 182.728 163.032L182.727 163.031Z" fill="#FFB7B7"/>
<path d="M197.755 155.774L193.649 141.276L193.851 141.138L232.314 114.985L265.562 81.5919L284.93 89.3375L283.658 95.4736L283.575 95.5489L239.37 135.182L239.329 135.202L197.755 155.774Z" fill="#091229"/>
<path d="M237.158 188.89L296.684 180.538L291.444 143.977H247.621L237.158 188.89Z" fill="#FFB6B6"/>
<path d="M338.301 367.918L326.091 370.758L309.335 324.966L327.356 320.774L338.301 367.918Z" fill="#FFB6B6"/>
<path d="M349.662 387.596L340.906 389.633L337.421 381.721L335.339 390.927L312.115 396.33C311.001 396.589 309.835 396.485 308.785 396.033C307.735 395.581 306.856 394.805 306.278 393.818C305.7 392.832 305.452 391.686 305.57 390.548C305.689 389.41 306.167 388.34 306.937 387.494L322.506 370.358L320.564 361.992L340.343 358.62L349.662 387.596Z" fill="#091229"/>
<path d="M262.958 374.728H250.422L244.456 326.329H262.958V374.728Z" fill="#FFB6B6"/>
<path d="M269.575 396.47H260.585L258.98 387.974L254.87 396.47H231.026C229.883 396.47 228.77 396.105 227.85 395.427C226.929 394.749 226.249 393.794 225.909 392.702C225.569 391.61 225.587 390.437 225.959 389.356C226.332 388.274 227.04 387.34 227.981 386.69L247.022 373.527V364.938L267.049 366.135L269.575 396.47Z" fill="#091229"/>
<path d="M297.436 174.334L239.223 169.699C222.044 209.866 232.967 273.987 246.169 346.17L264.893 348.593L266.345 232.604L313.283 340.508L332.798 339.51L297.436 174.334Z" fill="#091229"/>
<path d="M263.551 68.5637V48.8501C263.549 45.38 264.23 41.9436 265.556 38.7371C266.881 35.5307 268.825 32.6171 271.276 30.1627C273.726 27.7084 276.636 25.7614 279.839 24.4331C283.041 23.1047 286.474 22.421 289.941 22.421C293.408 22.421 296.841 23.1047 300.043 24.4331C303.246 25.7614 306.156 27.7084 308.606 30.1627C311.057 32.6171 313.001 35.5307 314.326 38.7371C315.652 41.9436 316.333 45.38 316.331 48.8501C320.983 58.5519 318.073 63.1645 316.331 68.5637C316.33 69.5039 315.956 70.4051 315.292 71.0699C314.627 71.7347 313.727 72.1089 312.788 72.1105H267.096C266.156 72.1094 265.255 71.7354 264.591 71.0705C263.926 70.4057 263.552 69.5042 263.551 68.5637Z" fill="#091229"/>
<path d="M283.428 71.8134C272.742 71.8134 264.079 63.1423 264.079 52.446C264.079 41.7497 272.742 33.0786 283.428 33.0786C294.114 33.0786 302.777 41.7497 302.777 52.446C302.777 63.1423 294.114 71.8134 283.428 71.8134Z" fill="#FFB7B7"/>
<path d="M257.308 50.4267C257.314 44.8866 259.515 39.5753 263.429 35.6579C267.343 31.7406 272.649 29.537 278.183 29.5308H282.122C287.657 29.537 292.963 31.7406 296.877 35.658C300.791 39.5753 302.992 44.8866 302.998 50.4267V50.8211C300.048 52.8398 297.247 53.1351 294.674 50.8211L291.835 42.8635L291.267 50.821H286.964L285.53 46.8064L285.243 50.8211C279.432 55.7752 268.442 53.4011 257.308 50.8211L257.308 50.4267Z" fill="#091229"/>
<path d="M294.71 154.663L245.447 152.786L242.693 120.527C240.57 114.623 240.535 109.549 242.591 105.458C244.36 102.096 247.331 99.5254 250.911 98.2608L261.69 85.2287C263.077 83.5538 264.818 82.2081 266.788 81.2888C268.757 80.3696 270.907 79.8999 273.08 79.9136L301.089 80.1053C301.764 79.6991 305.859 77.6157 313.936 81.1186C322.696 84.9188 320.662 98.1215 320.64 98.254L320.619 98.3782L320.523 98.4626L301.893 114.17L294.71 154.663Z" fill="#091229"/>
<path d="M524.173 397.298H29.5334C29.3142 397.298 29.104 397.21 28.949 397.055C28.794 396.9 28.7069 396.69 28.7069 396.47C28.7069 396.251 28.794 396.04 28.949 395.885C29.104 395.73 29.3142 395.643 29.5334 395.643H524.173C524.393 395.643 524.603 395.73 524.758 395.885C524.913 396.04 525 396.251 525 396.47C525 396.69 524.913 396.9 524.758 397.055C524.603 397.21 524.393 397.298 524.173 397.298Z" fill="#E4EAED"/>
<path d="M164.019 201.486C164.055 220.279 171.114 238.378 183.807 252.226C196.5 266.074 213.909 274.668 232.611 276.319C251.313 277.97 269.956 272.558 284.874 261.148C299.792 249.738 309.907 233.154 313.229 214.658C316.552 196.162 312.842 177.09 302.828 161.193C292.815 145.296 277.223 133.723 259.117 128.75C241.012 123.777 221.703 125.763 204.986 134.317C188.269 142.872 175.354 157.377 168.78 174.98C168.616 175.422 168.456 175.864 168.3 176.31V176.315C167.606 178.276 166.995 180.275 166.466 182.31C164.836 188.571 164.013 195.015 164.019 201.486Z" fill="#0065F3"/>
<path d="M248.007 150.359C251.409 148.518 255.186 147.478 259.051 147.32C262.915 147.161 266.765 147.889 270.306 149.446C273.424 150.804 276.707 153.241 277.747 157.64C273.54 155.155 268.095 159.082 267.012 165.38L267.265 165.45C267.837 169.813 266.561 174.563 264.09 177.268C263.906 176.047 263.453 174.883 262.763 173.859C262.074 172.836 261.165 171.979 260.104 171.351C258.288 170.156 256.28 169.288 254.894 167.235C253.251 164.801 252.834 161.243 252.182 157.997C251.529 154.752 250.291 151.263 248.007 150.359Z" fill="#E4EAED"/>
<path d="M271.554 187.484C272.719 189.235 274.275 190.334 275.672 191.702C277.284 193.17 278.341 195.149 278.666 197.306C278.843 198.83 278.57 200.379 278.607 201.92C278.645 203.461 279.158 205.195 280.206 205.578C281.859 206.176 283.12 203.103 284.819 202.888C286.17 202.72 287.385 204.846 286.994 206.69C286.603 208.534 284.765 209.35 283.709 208.146C282.754 209.75 283.427 212.659 284.861 213.152C285.013 214.162 285.164 215.168 285.311 216.179C288.937 213.64 292.6 211.06 295.683 207.342C299.112 203.243 301.238 198.211 301.79 192.894C302.19 188.621 301.597 183.733 303.556 180.445C305.125 177.814 307.817 177.233 310.24 177.397C310.681 177.426 311.127 177.477 311.569 177.532C310.14 173.236 308.325 169.08 306.147 165.112C305.654 164.9 305.196 164.615 304.789 164.266C302.535 162.35 301.534 158.473 299.704 155.791C299.586 155.619 299.464 155.45 299.338 155.286C297.466 152.84 294.96 151.581 292.537 150.411C287.175 147.805 281.657 145.165 275.996 145.528L277.606 145.683C279.486 150.954 281.368 156.225 283.251 161.496C283.537 162.304 283.826 163.114 284.117 163.925C285.185 166.922 286.287 170.114 286.123 173.469C286.026 175.456 285.337 177.578 284.025 178.26C282.801 178.891 281.463 178.117 280.281 177.351C279.781 177.031 279.285 176.711 278.784 176.386C276.988 175.229 274.999 174.041 273.102 174.816C271.365 175.523 270.082 177.885 269.838 180.432C269.614 182.908 270.218 185.388 271.554 187.484Z" fill="#E4EAED"/>
<path d="M260.873 223.469C266.118 220.237 271.363 217.004 276.608 213.772L276.519 213.542C279.78 214.785 281.134 220.588 280.595 225.333C280.056 230.078 278.229 234.32 277.306 238.944C276.061 245.271 276.531 251.817 278.666 257.901C271.769 250.155 265.666 241.736 260.447 232.77C259.717 231.64 259.162 230.407 258.798 229.112C258.413 227.732 258.551 226.259 259.184 224.974C259.613 224.339 260.194 223.823 260.873 223.469Z" fill="#E4EAED"/>
<path d="M281.574 164.658C282.19 165.982 282.284 167.49 281.839 168.88C281.322 170.001 280.383 170.871 279.227 171.302L276.329 172.74C275.365 173.218 274.326 173.701 273.343 173.308C272.157 172.833 271.335 170.973 271.548 169.246C271.774 167.408 272.932 166.144 274.002 165.067C275.5 163.561 276.998 162.054 278.496 160.547L279.34 161.582C280.253 162.474 281.008 163.514 281.574 164.658Z" fill="#E4EAED"/>
<path d="M179.555 184.305C178.251 184.613 176.947 184.92 175.644 185.227C175.871 189.635 178.054 193.715 180.981 195.192C182.2 195.807 183.559 196.034 184.568 197.184C185.481 198.228 185.944 199.853 186.369 201.406C187.113 204.117 187.857 206.829 188.602 209.54C189.401 212.461 190.427 215.707 192.505 216.76C194.288 217.665 196.328 216.558 197.699 214.701C199.07 212.845 199.907 210.348 200.719 207.915C200.668 210.567 201.901 213.169 203.646 214.091C205.396 215.013 207.524 214.179 208.693 212.121C209.534 210.643 209.883 208.694 210.708 207.195C211.532 205.696 213.261 204.837 214.161 206.243C214.754 207.178 214.678 208.609 214.973 209.797C215.121 210.585 215.511 211.307 216.088 211.863C216.666 212.419 217.402 212.781 218.194 212.899C218.923 212.883 219.641 212.718 220.304 212.414C220.967 212.111 221.561 211.676 222.051 211.135C224.627 208.498 226.303 205.114 226.842 201.465C227.206 199.716 227.16 197.906 226.707 196.177C226.19 194.54 224.941 193.277 223.7 193.588C222.884 191.862 224.495 189.572 225.946 189.774C227.401 189.976 228.541 191.538 229.735 192.738C230.925 193.938 232.591 194.809 233.79 193.618C233.763 194.054 233.91 194.482 234.199 194.809C234.488 195.136 234.895 195.335 235.33 195.362C235.373 195.365 235.416 195.366 235.459 195.365C236.256 195.136 236.997 194.743 237.634 194.211C240.38 192.498 243.867 193.635 245.818 196.876C244.599 191.681 242.811 185.72 239.064 184.499C237.533 183.998 235.863 184.411 234.416 183.543C231.855 182.007 231.338 176.201 233.55 173.806C233.268 176.071 233.323 178.715 234.517 180.264C235.712 181.813 238.218 180.803 238.067 178.513C238.101 178.835 238.236 179.138 238.453 179.378C238.669 179.619 238.956 179.785 239.273 179.852C239.589 179.919 239.919 179.885 240.215 179.753C240.51 179.621 240.757 179.399 240.919 179.119C241.713 177.906 241.646 175.923 241.083 174.475C240.502 173.164 239.668 171.979 238.631 170.989C236.633 168.847 234.606 166.678 232.292 165.331C229.975 163.984 227.3 163.529 224.978 164.868C223.754 165.575 222.678 166.754 221.428 167.377C221.135 167.56 220.808 167.682 220.468 167.738C220.127 167.794 219.778 167.782 219.442 167.704C219.105 167.625 218.788 167.48 218.507 167.279C218.227 167.077 217.988 166.822 217.806 166.528C217.792 166.505 217.779 166.483 217.765 166.459C216.836 164.826 217.273 162.401 216.928 160.359C216.31 156.751 212.706 155.063 210.708 157.446C212.201 157.063 213.744 158.831 213.929 160.974C214.119 163.117 213.038 165.281 211.591 165.929C209.16 167.007 206.779 164.296 204.941 161.786C203.024 159.159 201.103 156.534 199.179 153.91C198.872 153.463 198.528 153.043 198.149 152.655C197.547 152.067 196.744 151.731 195.902 151.714C195.061 151.696 194.245 152 193.619 152.562C191.676 154.15 190.764 157.404 189.169 159.644C186.856 162.898 183.395 163.689 180.173 164.321C177.772 164.788 175.369 165.258 172.964 165.731C171.362 168.716 169.963 171.806 168.779 174.98C173.189 176.993 176.928 180.229 179.555 184.305Z" fill="#E4EAED"/>
<path d="M166.466 182.31C166.959 183.763 167.228 185.284 167.265 186.818C169.326 184.301 169.654 179.582 168.3 176.315C167.606 178.277 166.995 180.275 166.466 182.31Z" fill="#E4EAED"/>
<path d="M171.791 234.959C173.593 238.622 175.688 242.132 178.058 245.455C179.572 244.806 181.199 245.964 182.617 247.05C184.097 248.187 185.876 249.294 187.395 248.259C188.946 247.198 189.447 244.23 188.955 241.876C188.389 239.705 187.4 237.668 186.044 235.881C184.783 233.995 183.433 232.038 181.679 231.305C179.921 230.573 177.662 231.608 177.149 234.109L175.904 234.067C176.602 233.107 176.236 231.12 175.298 230.771C174.218 230.362 173.28 231.848 172.64 233.162C172.354 233.755 172.064 234.353 171.791 234.959Z" fill="#E4EAED"/>
<path d="M219.471 217.177C222.147 217.345 224.267 214.048 225.675 210.804C227.084 207.56 228.369 203.851 230.783 202.199C232.163 201.256 233.736 201.127 235.232 200.669C236.081 200.455 236.866 200.041 237.523 199.462C238.18 198.883 238.69 198.155 239.01 197.34L240.708 196.653C243.082 197.841 245.257 199.393 247.152 201.253C249.319 203.557 250.668 206.51 250.993 209.657C251.317 213.058 250.119 216.85 247.882 218.127C246.114 219.137 244.056 218.501 242.265 219.425C240.028 220.579 238.7 223.933 238.197 227.245C237.694 230.557 237.822 233.999 237.462 237.348C237.102 240.697 236.111 244.182 234.059 245.899C231.492 248.047 227.724 246.262 226.572 242.352C226.007 240.434 226.027 238.27 225.604 236.279C224.86 232.773 222.851 230.172 221.258 227.296C219.666 224.42 218.412 220.515 219.471 217.177Z" fill="#E4EAED"/>
<path d="M245.913 182.726C245.664 182.956 245.431 183.204 245.216 183.467C244.994 183.85 244.881 184.286 244.889 184.729C244.896 185.171 245.024 185.604 245.259 185.979C244.937 185.961 244.622 185.875 244.334 185.729C244.046 185.583 243.792 185.378 243.587 185.128C243.099 184.571 242.669 183.966 242.305 183.321C242.134 183.1 242.012 182.845 241.946 182.573C241.881 182.301 241.875 182.018 241.927 181.744C242.053 181.383 242.352 181.229 242.562 180.957C242.852 180.426 243.051 179.849 243.148 179.252C243.264 178.692 243.534 178.176 243.928 177.761C244.321 177.346 244.822 177.049 245.375 176.903L245.24 176.929C245.469 177.065 245.649 177.268 245.756 177.512C245.863 177.755 245.891 178.025 245.836 178.285C245.755 178.811 245.418 179.247 245.451 179.783C245.5 180.553 246.269 180.915 246.316 181.685C246.324 182.072 246.179 182.446 245.913 182.726Z" fill="#E4EAED"/>
<path d="M250.498 169.634L250.486 169.631C250.404 169.556 250.327 169.475 250.257 169.388L250.498 169.634Z" fill="#E4EAED"/>
<path d="M249.695 173.25C249.374 172.967 249.136 172.602 249.008 172.194C248.88 171.785 248.866 171.35 248.969 170.934C249.163 170.058 249.851 169.469 250.486 169.631C250.67 169.818 250.898 169.955 251.15 170.029C251.401 170.103 251.667 170.112 251.923 170.055C252.316 169.953 252.746 169.693 253.087 169.989C253.281 170.21 253.418 170.476 253.483 170.763C253.609 171.15 253.735 171.537 253.861 171.924C253.921 172.063 253.936 172.217 253.905 172.364C253.881 172.424 253.842 172.476 253.792 172.515C253.742 172.555 253.683 172.581 253.62 172.592C252.864 172.815 252.109 173.038 251.353 173.261C251.093 173.381 250.809 173.442 250.523 173.44C250.236 173.438 249.954 173.373 249.695 173.25Z" fill="#E4EAED"/>
<path d="M192.646 223.179C192.995 222.607 193.344 222.034 193.694 221.462C194.037 220.799 194.506 220.209 195.075 219.726C195.198 219.623 195.34 219.545 195.493 219.497C195.647 219.448 195.808 219.431 195.968 219.445C196.128 219.459 196.284 219.505 196.426 219.579C196.569 219.653 196.695 219.755 196.798 219.879L196.817 219.901L196.774 220.228C195.839 221.232 195.201 222.476 194.933 223.823C194.854 224.408 194.881 225.013 194.812 225.601C194.804 225.873 194.743 226.141 194.632 226.39C194.521 226.639 194.362 226.864 194.164 227.051C193.614 227.419 192.969 226.876 192.577 226.215C192.227 225.671 192.07 225.026 192.131 224.382C192.219 223.95 192.394 223.541 192.646 223.179Z" fill="#E4EAED"/>
<path d="M187.166 223.924C187.1 223.388 187.143 222.845 187.294 222.326C187.319 221.625 187.133 220.932 186.761 220.337C186.391 219.776 186.11 219.161 185.93 218.513C185.853 218.218 185.867 217.907 185.969 217.62C186.085 217.36 186.365 217.241 186.526 217.447L186.182 217.669C186.646 217.586 187.123 217.609 187.577 217.736C187.836 217.836 188.067 217.996 188.251 218.204C188.436 218.411 188.567 218.66 188.634 218.93C188.691 219.349 188.784 219.764 188.912 220.167C189.117 220.589 189.514 220.73 189.763 221.1C189.933 221.428 190.019 221.794 190.013 222.164C190.007 222.533 189.909 222.896 189.728 223.218C189.415 223.746 188.917 224.138 188.331 224.318C187.911 224.469 187.358 224.477 187.166 223.924Z" fill="#E4EAED"/>
<path d="M177.407 226.871C177.255 227.267 177.052 227.64 176.803 227.982C176.335 228.453 175.7 228.164 175.134 228.049C174.619 227.968 174.093 228.028 173.609 228.222C173.126 228.416 172.704 228.737 172.389 229.151C172.609 228.054 173.088 227.026 173.787 226.153C174.487 225.279 175.385 224.587 176.407 224.133C177.735 223.673 179.135 223.454 180.54 223.486L180.78 223.548C180.168 225.33 178.248 225.29 177.407 226.871Z" fill="#E4EAED"/>
<path d="M218.738 230.517L218.735 230.525L218.665 230.389L218.738 230.517Z" fill="#E4EAED"/>
<path d="M220.22 233.384C220.543 233.971 220.82 234.582 221.05 235.211C221.355 236.23 221.557 237.276 221.652 238.336C221.728 238.938 221.751 239.707 221.374 240C221.266 240.072 221.135 240.102 221.006 240.085C220.877 240.067 220.759 240.004 220.674 239.905C220.465 239.684 220.294 239.429 220.167 239.151C219.426 237.874 218.851 236.507 218.456 235.084C218.043 233.575 218.141 231.971 218.736 230.524C219.23 231.478 219.725 232.431 220.22 233.384Z" fill="#E4EAED"/>
<path d="M234.501 156.967C234.265 157.197 233.968 157.354 233.645 157.417C233.323 157.48 232.989 157.447 232.684 157.322C232.054 157.046 231.476 156.664 230.975 156.192C230.56 155.885 230.209 155.501 229.939 155.061C229.79 154.798 229.695 154.508 229.659 154.208C229.623 153.908 229.646 153.604 229.727 153.313C229.843 153.034 230.028 152.79 230.264 152.602C230.501 152.415 230.781 152.291 231.079 152.243C231.918 151.994 232.757 151.745 233.595 151.496L232.989 150.948C233.613 150.613 234.303 151.235 234.694 152.006C234.944 152.509 235.118 153.047 235.211 153.601C235.344 154.18 235.349 154.781 235.226 155.363C235.104 155.944 234.856 156.492 234.501 156.967Z" fill="#E4EAED"/>
<path d="M219.692 151.991C219.456 152.252 219.129 152.413 218.778 152.442C218.427 152.47 218.079 152.364 217.804 152.145C217.566 151.967 217.37 151.74 217.226 151.481C217.082 151.222 216.994 150.935 216.968 150.639C216.909 149.979 217.235 149.245 217.701 149.187L217.594 148.569C218.492 148.407 219.596 148.374 220.077 149.465C220.24 149.883 220.289 150.337 220.222 150.78C220.154 151.223 219.972 151.641 219.692 151.991Z" fill="#E4EAED"/>
<path d="M308.099 218.166C308.961 217.391 309.643 216.436 310.097 215.369C310.55 214.302 310.765 213.148 310.725 211.989C310.685 210.829 310.392 209.693 309.866 208.659C309.34 207.626 308.595 206.72 307.681 206.006L316.779 179.316L302.605 183.001L296.146 207.78C295.048 209.396 294.581 211.358 294.833 213.296C295.085 215.234 296.039 217.011 297.513 218.292C298.987 219.573 300.88 220.267 302.831 220.244C304.783 220.221 306.659 219.482 308.102 218.167L308.099 218.166Z" fill="#FFB7B7"/>
<path d="M312.163 201.969L298.411 195.835L303.031 149.276L298.728 102.328L317.089 92.4093L320.979 97.3191V97.4306L323.04 156.798L323.029 156.842L312.163 201.969Z" fill="#091229"/>
<path d="M101.497 340.711C109.273 337.132 117.66 332.915 126.658 328.061C173.201 302.945 230.433 263.766 287.814 217.74C345.194 171.714 395.866 124.339 430.496 84.3445C447.365 64.8615 459.517 48.1763 466.612 34.7521C474.124 20.54 475.639 10.4687 471.116 4.81838C462.303 -6.18916 433.604 3.72547 411.08 13.9813L411.903 15.7931C442.834 1.70908 463.312 -1.74622 469.564 6.06322C477.527 16.0095 462.739 44.0666 428.994 83.0408C394.44 122.948 343.86 170.233 286.57 216.187C229.281 262.139 172.154 301.248 125.715 326.309C80.3624 350.783 49.7825 359.115 41.8196 349.168C35.2083 340.91 44.2265 320.11 67.2123 290.6L65.6442 289.377C48.9425 310.819 30.9821 338.814 40.2677 350.413C44.7913 356.064 54.9411 356.778 70.4352 352.536C79.2673 350.118 89.6615 346.159 101.497 340.711Z" fill="#0065F3"/>
<path d="M399.249 206.508C420.686 196.641 440.277 186.731 457.436 177.033C479.865 164.356 496.91 152.727 508.098 142.47C519.944 131.61 524.752 122.634 522.388 115.79C517.783 102.459 487.424 102.146 462.767 104.23L462.934 106.214C496.795 103.351 517.242 106.983 520.509 116.441C524.67 128.487 501.325 149.94 456.459 175.299C410.518 201.266 347.007 228.792 277.623 252.806C208.24 276.821 141.307 294.444 89.1546 302.429C38.2224 310.227 6.62424 307.791 2.46298 295.745C-0.991913 285.743 14.4839 269.186 46.0389 249.121L44.9728 247.441C22.0444 262.02 -4.26889 282.347 0.583893 296.395C2.94766 303.238 12.268 307.324 28.285 308.541C43.414 309.689 63.9946 308.295 89.455 304.396C141.723 296.394 208.779 278.74 278.273 254.687C321.867 239.598 363.164 223.118 399.249 206.508Z" fill="#0065F3"/>
<path d="M369.088 126.198C362.688 126.198 357.5 121.005 357.5 114.599C357.5 108.193 362.688 103 369.088 103C375.488 103 380.676 108.193 380.676 114.599C380.676 121.005 375.488 126.198 369.088 126.198Z" fill="#FFCF00"/>
<path d="M485.248 309.114C478.848 309.114 473.66 303.921 473.66 297.515C473.66 291.109 478.848 285.916 485.248 285.916C491.647 285.916 496.835 291.109 496.835 297.515C496.835 303.921 491.647 309.114 485.248 309.114Z" fill="#56C397"/>
<path d="M138.088 114.198C131.688 114.198 126.5 109.005 126.5 102.599C126.5 96.1931 131.688 91 138.088 91C144.488 91 149.676 96.1931 149.676 102.599C149.676 109.005 144.488 114.198 138.088 114.198Z" fill="#FF3757"/>
<path d="M90.0879 277.198C83.6881 277.198 78.5 272.005 78.5 265.599C78.5 259.193 83.6881 254 90.0879 254C96.4877 254 101.676 259.193 101.676 265.599C101.676 272.005 96.4877 277.198 90.0879 277.198Z" fill="#773CCA"/>
</g>
<defs>
<clipPath id="clip0_859_9024">
<rect width="525" height="397.297" fill="white" transform="matrix(-1 0 0 1 525 0)"/>
</clipPath>
</defs>
</svg>
